<svg xmlns="http://www.w3.org/2000/svg" xmlns:xlink="http://www.w3.org/1999/xlink" xmlns:serif="http://www.serif.com/" width="100%" height="100%" viewBox="0 0 10222 3452" version="1.1" xml:space="preserve" style="fill-rule:evenodd;clip-rule:evenodd;stroke-linejoin:round;stroke-miterlimit:2;">
    <g transform="matrix(23.1482,0,0,23.1482,-1312.87,-19.8316)">
        <g transform="matrix(1.56588,0,0,1.56588,-472.727,-157.076)">
            <path d="M450.496,169.435C446.402,171.808 441.647,173.167 436.578,173.167C421.226,173.167 408.762,160.703 408.762,145.35C408.762,129.998 421.226,117.534 436.578,117.534C451.931,117.534 464.395,129.998 464.395,145.35C464.395,145.428 464.394,145.506 464.394,145.583C464.405,145.749 464.411,145.917 464.411,146.086L464.411,165.888C464.411,169.939 461.121,173.229 457.07,173.229L456.924,173.229C454.158,173.229 451.748,171.696 450.496,169.435ZM436.578,132.346C443.756,132.346 449.583,138.173 449.583,145.35C449.583,152.528 443.756,158.355 436.578,158.355C429.401,158.355 423.574,152.528 423.574,145.35C423.574,138.173 429.401,132.346 436.578,132.346Z" style="fill:#ffffff;"/>
        </g>
        <g transform="matrix(1.56588,0,0,1.56588,-473.591,-156.212)">
            <path d="M478.536,144.506L464.304,130.274C461.422,127.392 461.422,122.712 464.304,119.83L464.408,119.726C467.29,116.844 471.97,116.844 474.852,119.726L485.995,130.868L497.094,119.769C499.976,116.887 504.655,116.887 507.538,119.769L507.642,119.874C510.524,122.756 510.524,127.435 507.642,130.318L493.453,144.506L493.453,165.688C493.453,169.763 490.144,173.072 486.068,173.073L485.921,173.073C481.845,173.073 478.536,169.763 478.536,165.688L478.536,144.506Z" style="fill:#ffffff;"/>
        </g>
        <g transform="matrix(1.56588,0,0,1.56588,-473.591,-156.212)">
            <path d="M520.444,100.307C524.52,100.307 527.829,103.616 527.829,107.692L527.829,140.601C528.064,140.228 528.336,139.872 528.645,139.538C528.836,139.29 529.045,139.052 529.272,138.825L548.875,119.222C551.757,116.34 556.437,116.34 559.319,119.222L559.424,119.327C562.306,122.209 562.306,126.889 559.424,129.771L544.688,144.506L560.711,160.528C563.593,163.41 563.593,168.09 560.711,170.972L560.606,171.076C557.724,173.958 553.044,173.958 550.162,171.076L528.852,149.766C528.457,149.371 528.116,148.942 527.829,148.488L527.829,166.054C527.829,170.13 524.52,173.439 520.444,173.439L520.296,173.439C516.22,173.439 512.911,170.13 512.911,166.054L512.911,107.692C512.911,103.616 516.22,100.307 520.296,100.307L520.444,100.307Z" style="fill:#ffffff;"/>
        </g>
        <g transform="matrix(1.56588,0,0,1.56588,-473.591,-156.212)">
            <path d="M605.849,145.908L605.849,145.897L605.849,124.699C605.849,120.615 609.165,117.299 613.248,117.299C617.332,117.299 620.648,120.615 620.648,124.699L620.648,144.615C620.652,144.805 620.654,144.995 620.654,145.185C620.654,145.376 620.652,145.567 620.648,145.757L620.648,145.897C620.648,146.105 620.639,146.311 620.622,146.515C619.927,161.251 607.744,173.001 592.837,173.001C577.967,173.001 565.806,161.307 565.058,146.622C565.034,146.383 565.023,146.141 565.023,145.897L565.023,145.466C565.022,145.372 565.021,145.279 565.021,145.185C565.021,145.092 565.022,144.998 565.023,144.905L565.023,124.699C565.023,120.615 568.338,117.299 572.422,117.299C576.506,117.299 579.821,120.615 579.821,124.699L579.821,144.505L579.823,144.505L579.821,144.547L579.821,145.824C580.155,152.72 585.859,158.217 592.837,158.217C599.787,158.217 605.473,152.765 605.849,145.908Z" style="fill:#ffffff;"/>
        </g>
        <g transform="matrix(1.56422,0,0,1.56422,-473.404,-156.867)">
            <path d="M351.159,145.578C351.158,145.502 351.158,145.426 351.158,145.35C351.158,129.998 363.622,117.534 378.974,117.534C394.326,117.534 406.79,129.998 406.79,145.35C406.79,160.703 394.326,173.167 378.974,173.167C374.336,173.167 369.961,172.029 366.114,170.017L366.114,188.775C366.114,192.851 362.805,196.16 358.729,196.16L358.581,196.16C354.505,196.16 351.196,192.851 351.196,188.775L351.196,170.389L346.936,172.848C344.393,174.316 341.137,173.444 339.67,170.901L339.617,170.81C338.149,168.267 339.021,165.011 341.563,163.543L351.196,157.982L351.196,157.964L359.527,153.154C362.069,151.686 362.942,148.43 361.474,145.888L361.421,145.796C359.953,143.253 356.697,142.381 354.155,143.849L351.159,145.578ZM368.816,153.796C371.24,156.708 374.892,158.563 378.974,158.563C386.267,158.563 392.187,152.643 392.187,145.35C392.187,138.058 386.267,132.138 378.974,132.138C371.682,132.138 365.762,138.058 365.762,145.35C365.762,148.163 366.642,150.772 368.143,152.915C368.393,153.18 368.619,153.474 368.816,153.796Z" style="fill:#ffffff;"/>
        </g>
    </g>
</svg>